<svg width="1200" height="900" viewBox="0 0 1200 900" xmlns="http://www.w3.org/2000/svg">
<defs><linearGradient id="bg" x1="0" y1="0" x2="1" y2="1"><stop stop-color="#17151C"/><stop offset=".5" stop-color="#302A49"/><stop offset="1" stop-color="#0C1014"/></linearGradient><radialGradient id="orb"><stop stop-color="#F4F2EE"/><stop offset=".45" stop-color="#BBA9FF"/><stop offset="1" stop-color="#4F3C88"/></radialGradient><filter id="blur"><feGaussianBlur stdDeviation="28"/></filter></defs>
<rect width="1200" height="900" fill="url(#bg)"/><g opacity=".25" stroke="#fff"><path d="M0 100H1200M0 200H1200M0 300H1200M0 400H1200M0 500H1200M0 600H1200M0 700H1200M0 800H1200"/><path d="M100 0V900M200 0V900M300 0V900M400 0V900M500 0V900M600 0V900M700 0V900M800 0V900M900 0V900M1000 0V900M1100 0V900"/></g><circle cx="860" cy="420" r="240" fill="#8E7EFF" opacity=".16" filter="url(#blur)"/><circle cx="860" cy="420" r="210" fill="url(#orb)"/><ellipse cx="860" cy="420" rx="320" ry="120" fill="none" stroke="#8DE6FF" stroke-opacity=".35" stroke-width="3" transform="rotate(-18 860 420)"/><rect x="100" y="110" width="370" height="520" rx="28" fill="#F4F2EE" fill-opacity=".06" stroke="#fff" stroke-opacity=".2"/><text x="140" y="170" fill="#fff" font-family="Arial" font-size="23" letter-spacing="5">PLACEHOLDER</text><text x="140" y="250" fill="#fff" font-family="Arial" font-size="72" font-weight="700">WEB</text><text x="140" y="330" fill="#BBA9FF" font-family="Arial" font-size="72" font-weight="700">CASE</text><rect x="140" y="385" width="180" height="3" fill="#75D8FF"/><text x="140" y="460" fill="#fff" fill-opacity=".55" font-family="Arial" font-size="20">Replace with your</text><text x="140" y="490" fill="#fff" fill-opacity=".55" font-family="Arial" font-size="20">real project imagery.</text></svg>
